<svg width="145" height="40" viewBox="0 0 145 40" fill="none" xmlns="http://www.w3.org/2000/svg">
<g clip-path="url(#clip0_87_21663)">
<path d="M144.111 34.7985C144.111 32.5754 142.535 30.9475 140.363 30.9475C138.195 30.9475 136.617 32.5754 136.617 34.7985C136.617 37.0179 138.195 38.6431 140.363 38.6431C142.535 38.6431 144.111 37.0152 144.111 34.7985ZM139.378 34.996V37.5113H138.566V31.9648H140.585C141.768 31.9648 142.311 32.4816 142.311 33.489C142.311 34.1095 141.892 34.601 141.352 34.6722V34.6957C141.821 34.7705 141.993 35.189 142.089 35.9547C142.163 36.4507 142.262 37.311 142.438 37.5131H141.477C141.253 36.9918 141.276 36.2541 141.104 35.6363C140.961 35.1664 140.71 34.9951 140.172 34.9951H139.383V34.9978L139.378 34.996ZM140.386 34.279C141.175 34.279 141.4 33.8587 141.4 33.4881C141.4 33.0498 141.175 32.7035 140.386 32.7035H139.378V34.2808H140.386V34.279ZM135.723 34.7985C135.723 32.0595 137.898 30.208 140.36 30.208C142.829 30.208 145.001 32.0595 145.001 34.7985C145.001 37.532 142.83 39.3853 140.36 39.3853C137.898 39.3853 135.723 37.532 135.723 34.7985Z" fill="#FF5A00"/>
<path d="M119.655 38.5855L114.31 32.5908L109.011 38.5855H97.8624L108.759 26.3436L97.8624 14.0982H109.359L114.759 20.0469L119.954 14.0982H131.049L120.207 26.2922L131.2 38.5855H119.655ZM76.4541 38.5855V0.0102539H97.8624V8.60858H85.5223V14.0982H97.8624V22.3718H85.5223V29.9655H97.8624V38.5855H76.4541Z" fill="#FF5A00"/>
<path d="M67.4192 0.0102539V15.7973H67.3191C65.3197 13.4994 62.8207 12.6985 59.923 12.6985C53.9851 12.6985 49.5119 16.7379 47.9418 22.0742C46.1507 16.1932 41.5323 12.5885 34.6854 12.5885C29.1236 12.5885 24.7333 15.0839 22.4399 19.1513V14.0973H10.9457V8.60948H23.4906V0.0120601H0.699707V38.5855H10.9457V22.3718H21.1584C20.8438 23.6187 20.6866 24.8999 20.6903 26.1858C20.6903 34.2286 26.8365 39.8805 34.6836 39.8805C41.2798 39.8805 45.6303 36.7809 47.9292 31.1379H39.1478C37.9609 32.8361 37.0591 33.3376 34.6845 33.3376C31.932 33.3376 29.5565 30.935 29.5565 28.0905H47.4367C48.2123 34.4802 53.1906 39.9897 60.0231 39.9897C62.9704 39.9897 65.6687 38.5404 67.3182 36.0918H67.4174V38.5909H76.4514V0.0120601H67.4192V0.0102539ZM29.8415 22.4873C30.4124 20.036 32.3126 18.4343 34.6845 18.4343C37.2962 18.4343 39.1 19.9864 39.5734 22.4873H29.8415ZM61.9368 32.7153C58.6081 32.7153 56.5392 29.6138 56.5392 26.3743C56.5392 22.9112 58.3393 19.5842 61.9368 19.5842C65.6696 19.5842 67.1568 22.913 67.1568 26.3743C67.1568 29.6553 65.5821 32.7153 61.9368 32.7153Z" fill="#29007C"/>
</g>
<defs>
<clipPath id="clip0_87_21663">
<rect width="144.3" height="40" fill="white" transform="translate(0.699707)"/>
</clipPath>
</defs>
</svg>
