<svg width="101" height="32" viewBox="0 0 101 32" fill="none" xmlns="http://www.w3.org/2000/svg">
<path d="M21.6634 3.10669C23.6371 6.97632 24.75 11.3582 24.75 16C24.75 20.6419 23.637 25.0238 21.6634 28.8934C26.2322 26.4088 29.3334 21.5666 29.3334 16C29.3334 10.4335 26.2323 5.59127 21.6634 3.10669Z" fill="#40CAD0"/>
<path d="M15.0683 2.79907C14.4049 1.8593 13.2748 1.35318 12.1414 1.54987C5.24458 2.74674 0 8.76088 0 15.9999C0 23.239 5.24455 29.2531 12.1413 30.45C13.2747 30.6467 14.4048 30.1406 15.0682 29.2008C17.7025 25.469 19.25 20.9152 19.25 15.9999C19.25 11.0847 17.7026 6.53086 15.0683 2.79907Z" fill="#FF6200"/>
<path d="M38.4465 10.2137H40.9485L44.2991 18.3919H44.4314L47.782 10.2137H50.2839V21.5H48.322V13.7462H48.2173L45.0982 21.4669H43.6323L40.5131 13.7296H40.4084V21.5H38.4465V10.2137ZM56.1696 21.6653C55.3209 21.6653 54.5879 21.489 53.9707 21.1363C53.3572 20.7799 52.8851 20.2766 52.5544 19.6263C52.2238 18.9723 52.0584 18.2026 52.0584 17.3172C52.0584 16.4465 52.2238 15.6823 52.5544 15.0247C52.8887 14.3634 53.3553 13.849 53.9542 13.4816C54.553 13.1106 55.2566 12.925 56.0649 12.925C56.5866 12.925 57.0789 13.0095 57.5418 13.1785C58.0084 13.3439 58.4198 13.601 58.7762 13.9501C59.1363 14.2991 59.4192 14.7436 59.6249 15.2837C59.8306 15.8201 59.9335 16.4594 59.9335 17.2015V17.8132H52.9953V16.4685H58.0212C58.0176 16.0865 57.9349 15.7466 57.7732 15.449C57.6116 15.1478 57.3856 14.9108 57.0954 14.7381C56.8088 14.5655 56.4745 14.4791 56.0924 14.4791C55.6846 14.4791 55.3264 14.5783 55.0178 14.7767C54.7092 14.9714 54.4685 15.2286 54.2959 15.5482C54.1269 15.8642 54.0405 16.2114 54.0368 16.5898V17.7636C54.0368 18.2559 54.1269 18.6784 54.3069 19.0311C54.4869 19.3801 54.7386 19.6483 55.0619 19.8357C55.3852 20.0194 55.7636 20.1113 56.1971 20.1113C56.4874 20.1113 56.75 20.0708 56.9852 19.99C57.2203 19.9055 57.4242 19.7824 57.5969 19.6208C57.7696 19.4591 57.9 19.2589 57.9882 19.0201L59.8508 19.2295C59.7333 19.7218 59.5092 20.1517 59.1785 20.5191C58.8515 20.8828 58.4327 21.1657 57.922 21.3677C57.4114 21.5661 56.8272 21.6653 56.1696 21.6653ZM61.6212 21.5V13.0353H63.5555V14.446H63.6437C63.798 13.9574 64.0626 13.5808 64.4373 13.3163C64.8157 13.0481 65.2474 12.914 65.7324 12.914C65.8426 12.914 65.9656 12.9195 66.1016 12.9306C66.2412 12.9379 66.3569 12.9508 66.4488 12.9691V14.8043C66.3643 14.7749 66.2302 14.7491 66.0465 14.7271C65.8665 14.7014 65.6919 14.6885 65.5229 14.6885C65.1592 14.6885 64.8322 14.7675 64.542 14.9255C64.2554 15.0798 64.0295 15.2947 63.8642 15.5703C63.6988 15.8458 63.6162 16.1636 63.6162 16.5237V21.5H61.6212ZM71.1179 21.6653C70.2729 21.6653 69.5473 21.4798 68.9411 21.1087C68.3386 20.7377 67.8738 20.2251 67.5468 19.5712C67.2235 18.9136 67.0619 18.1567 67.0619 17.3007C67.0619 16.441 67.2272 15.6823 67.5578 15.0247C67.8885 14.3634 68.3551 13.849 68.9576 13.4816C69.5638 13.1106 70.2802 12.925 71.1069 12.925C71.7939 12.925 72.4019 13.0518 72.931 13.3053C73.4637 13.5551 73.888 13.9097 74.204 14.3689C74.5199 14.8245 74.7 15.3572 74.7441 15.9671H72.8373C72.7601 15.5593 72.5764 15.2194 72.2862 14.9475C71.9996 14.672 71.6157 14.5342 71.1344 14.5342C70.7266 14.5342 70.3684 14.6444 70.0598 14.8649C69.7512 15.0816 69.5105 15.3939 69.3379 15.8017C69.1689 16.2095 69.0844 16.6982 69.0844 17.2676C69.0844 17.8444 69.1689 18.3404 69.3379 18.7556C69.5069 19.1671 69.7438 19.4848 70.0488 19.709C70.3574 19.9294 70.7193 20.0396 71.1344 20.0396C71.4283 20.0396 71.691 19.9845 71.9225 19.8743C72.1576 19.7604 72.3542 19.5969 72.5121 19.3838C72.6701 19.1707 72.7785 18.9117 72.8373 18.6068H74.7441C74.6963 19.2056 74.5199 19.7365 74.215 20.1994C73.9101 20.6587 73.4949 21.0187 72.9695 21.2796C72.4442 21.5367 71.8269 21.6653 71.1179 21.6653ZM81.7773 17.94V13.0353H83.7723V21.5H81.838V19.9955H81.7498C81.5587 20.4695 81.2446 20.8571 80.8074 21.1583C80.3739 21.4596 79.8393 21.6102 79.2037 21.6102C78.649 21.6102 78.1585 21.4871 77.7323 21.241C77.3098 20.9912 76.9792 20.6293 76.7404 20.1553C76.5016 19.6777 76.3822 19.1009 76.3822 18.4249V13.0353H78.3771V18.1163C78.3771 18.6527 78.5241 19.0789 78.818 19.3948C79.1119 19.7108 79.4977 19.8688 79.9753 19.8688C80.2692 19.8688 80.5539 19.7971 80.8295 19.6538C81.105 19.5106 81.331 19.2975 81.5073 19.0146C81.6873 18.728 81.7773 18.3698 81.7773 17.94ZM85.8237 21.5V13.0353H87.758V14.446H87.8462C88.0005 13.9574 88.265 13.5808 88.6398 13.3163C89.0182 13.0481 89.4499 12.914 89.9348 12.914C90.0451 12.914 90.1681 12.9195 90.3041 12.9306C90.4437 12.9379 90.5594 12.9508 90.6513 12.9691V14.8043C90.5668 14.7749 90.4327 14.7491 90.249 14.7271C90.0689 14.7014 89.8944 14.6885 89.7254 14.6885C89.3617 14.6885 89.0347 14.7675 88.7445 14.9255C88.4579 15.0798 88.232 15.2947 88.0667 15.5703C87.9013 15.8458 87.8187 16.1636 87.8187 16.5237V21.5H85.8237ZM93.4742 24.6743C93.2023 24.6743 92.9507 24.6522 92.7192 24.6081C92.4914 24.5677 92.3096 24.52 92.1736 24.4649L92.6366 22.9108C92.9268 22.9953 93.1858 23.0357 93.4136 23.032C93.6414 23.0284 93.8416 22.9567 94.0143 22.8171C94.1906 22.6812 94.3394 22.4534 94.4607 22.1338L94.6315 21.6763L91.5619 13.0353H93.6781L95.629 19.4279H95.7172L97.6735 13.0353H99.7952L96.406 22.525C96.248 22.9732 96.0386 23.3572 95.7778 23.6768C95.5169 24.0001 95.1973 24.2463 94.8189 24.4153C94.4441 24.5879 93.9959 24.6743 93.4742 24.6743Z" fill="#101828"/>
</svg>
