<svg width="64" height="64" viewBox="0 0 64 64" fill="none" xmlns="http://www.w3.org/2000/svg">
<path d="M47.2655 3.86926C51.5716 12.3121 53.9998 21.8725 53.9998 32.0001C53.9998 42.1278 51.5715 51.6883 47.2654 60.1312C57.2338 54.7103 63.9998 44.1454 63.9998 32.0002C63.9998 19.855 57.2338 9.29016 47.2655 3.86926Z" fill="#40CAD0"/>
<path d="M32.876 3.19826C31.4286 1.14786 28.9629 0.0435955 26.4901 0.472733C11.4425 3.0841 -0.000244141 16.2058 -0.000244141 32.0002C-0.000244141 47.7945 11.4424 60.9162 26.49 63.5276C28.9628 63.9568 31.4285 62.8525 32.8759 60.8021C38.6235 52.66 41.9998 42.7243 41.9998 32.0001C41.9998 21.276 38.6235 11.3404 32.876 3.19826Z" fill="#FF6200"/>
</svg>
