<svg width="16" height="12" viewBox="0 0 16 12" fill="none" xmlns="http://www.w3.org/2000/svg">
<path d="M1.33325 2.66663L6.77653 6.47692C7.21731 6.78547 7.4377 6.93974 7.67743 6.9995C7.88918 7.05228 8.11066 7.05228 8.32241 6.9995C8.56213 6.93974 8.78252 6.78547 9.2233 6.47692L14.6666 2.66663M4.53325 11.3333H11.4666C12.5867 11.3333 13.1467 11.3333 13.5746 11.1153C13.9509 10.9236 14.2569 10.6176 14.4486 10.2413C14.6666 9.81345 14.6666 9.2534 14.6666 8.13329V3.86663C14.6666 2.74652 14.6666 2.18647 14.4486 1.75865C14.2569 1.38232 13.9509 1.07636 13.5746 0.884613C13.1467 0.666626 12.5867 0.666626 11.4666 0.666626H4.53325C3.41315 0.666626 2.85309 0.666626 2.42527 0.884613C2.04895 1.07636 1.74299 1.38232 1.55124 1.75865C1.33325 2.18647 1.33325 2.74652 1.33325 3.86663V8.13329C1.33325 9.2534 1.33325 9.81345 1.55124 10.2413C1.74299 10.6176 2.04895 10.9236 2.42527 11.1153C2.85309 11.3333 3.41315 11.3333 4.53325 11.3333Z" stroke="#667085" stroke-width="1.33333" stroke-linecap="round" stroke-linejoin="round"/>
</svg>
