<svg width="18" height="21" viewBox="0 0 18 21" fill="none" xmlns="http://www.w3.org/2000/svg">
<path d="M17 19.3333C17 17.9377 17 17.2399 16.8278 16.6721C16.44 15.3937 15.4395 14.3933 14.1611 14.0055C13.5933 13.8332 12.8956 13.8332 11.5 13.8332H6.5C5.10444 13.8332 4.40665 13.8332 3.83886 14.0055C2.56045 14.3933 1.56004 15.3937 1.17224 16.6721C1 17.2399 1 17.9377 1 19.3333M13.5 5.83325C13.5 8.31853 11.4853 10.3333 9 10.3333C6.51472 10.3333 4.5 8.31853 4.5 5.83325C4.5 3.34797 6.51472 1.33325 9 1.33325C11.4853 1.33325 13.5 3.34797 13.5 5.83325Z" stroke="#667085" stroke-width="2" stroke-linecap="round" stroke-linejoin="round"/>
</svg>
