<svg width="22" height="17" viewBox="0 0 22 17" fill="none" xmlns="http://www.w3.org/2000/svg">
<path d="M21 6.33325H1M1 4.53325L1 12.1333C1 13.2534 1 13.8134 1.21799 14.2412C1.40973 14.6176 1.71569 14.9235 2.09202 15.1153C2.51984 15.3332 3.07989 15.3332 4.2 15.3333L17.8 15.3333C18.9201 15.3333 19.4802 15.3333 19.908 15.1153C20.2843 14.9235 20.5903 14.6176 20.782 14.2412C21 13.8134 21 13.2534 21 12.1333V4.53325C21 3.41315 21 2.8531 20.782 2.42527C20.5903 2.04895 20.2843 1.74299 19.908 1.55124C19.4802 1.33325 18.9201 1.33325 17.8 1.33325L4.2 1.33325C3.0799 1.33325 2.51984 1.33325 2.09202 1.55124C1.7157 1.74299 1.40973 2.04895 1.21799 2.42527C1 2.85309 1 3.41315 1 4.53325Z" stroke="#667085" stroke-width="2" stroke-linecap="round" stroke-linejoin="round"/>
</svg>
