<svg width="22" height="19" viewBox="0 0 22 19" fill="none" xmlns="http://www.w3.org/2000/svg">
<path d="M11 17.3333H4.2C3.07989 17.3333 2.51984 17.3333 2.09202 17.1153C1.71569 16.9235 1.40973 16.6176 1.21799 16.2412C1 15.8134 1 15.2534 1 14.1333V4.53325C1 3.41315 1 2.85309 1.21799 2.42527C1.40973 2.04895 1.71569 1.74299 2.09202 1.55124C2.51984 1.33325 3.07989 1.33325 4.2 1.33325H4.6C6.84021 1.33325 7.96031 1.33325 8.81596 1.76923C9.56861 2.15272 10.1805 2.76464 10.564 3.51729C11 4.37294 11 5.49304 11 7.73325M11 17.3333V7.73325M11 17.3333H17.8C18.9201 17.3333 19.4802 17.3333 19.908 17.1153C20.2843 16.9235 20.5903 16.6176 20.782 16.2412C21 15.8134 21 15.2534 21 14.1333V4.53325C21 3.41315 21 2.85309 20.782 2.42527C20.5903 2.04895 20.2843 1.74299 19.908 1.55124C19.4802 1.33325 18.9201 1.33325 17.8 1.33325H17.4C15.1598 1.33325 14.0397 1.33325 13.184 1.76923C12.4314 2.15272 11.8195 2.76464 11.436 3.51729C11 4.37294 11 5.49304 11 7.73325" stroke="#667085" stroke-width="2" stroke-linecap="round" stroke-linejoin="round"/>
</svg>
