<svg width="20" height="22" viewBox="0 0 20 22" fill="none" xmlns="http://www.w3.org/2000/svg">
<path d="M6 16.3332H14M9.0177 2.09725L2.23539 7.37238C1.78202 7.725 1.55534 7.90131 1.39203 8.12211C1.24737 8.3177 1.1396 8.53804 1.07403 8.7723C1 9.03677 1 9.32395 1 9.8983V17.1332C1 18.2533 1 18.8134 1.21799 19.2412C1.40973 19.6175 1.71569 19.9235 2.09202 20.1152C2.51984 20.3332 3.07989 20.3332 4.2 20.3332H15.8C16.9201 20.3332 17.4802 20.3332 17.908 20.1152C18.2843 19.9235 18.5903 19.6175 18.782 19.2412C19 18.8134 19 18.2533 19 17.1332V9.8983C19 9.32395 19 9.03677 18.926 8.7723C18.8604 8.53804 18.7526 8.3177 18.608 8.12211C18.4447 7.90131 18.218 7.725 17.7646 7.37238L10.9823 2.09725C10.631 1.824 10.4553 1.68737 10.2613 1.63485C10.0902 1.58851 9.9098 1.58851 9.73865 1.63485C9.54468 1.68737 9.36902 1.824 9.0177 2.09725Z" stroke="#667085" stroke-width="2" stroke-linecap="round" stroke-linejoin="round"/>
</svg>
