<svg width="22" height="19" viewBox="0 0 22 19" fill="none" xmlns="http://www.w3.org/2000/svg">
<path d="M13 4.33325H15.3373C15.5818 4.33325 15.7041 4.33325 15.8192 4.36088C15.9213 4.38538 16.0188 4.42578 16.1083 4.48061C16.2092 4.54245 16.2957 4.62893 16.4686 4.80188L20.5314 8.86462C20.7043 9.03757 20.7908 9.12405 20.8526 9.22497C20.9075 9.31444 20.9479 9.41198 20.9724 9.51402C21 9.62911 21 9.7514 21 9.99599V12.8333C21 13.2992 21 13.5322 20.9239 13.7159C20.8224 13.961 20.6277 14.1556 20.3827 14.2571C20.1989 14.3333 19.9659 14.3333 19.5 14.3333M14.5 14.3333H13M13 14.3333V4.53325C13 3.41315 13 2.85309 12.782 2.42527C12.5903 2.04895 12.2843 1.74299 11.908 1.55124C11.4802 1.33325 10.9201 1.33325 9.8 1.33325H4.2C3.0799 1.33325 2.51984 1.33325 2.09202 1.55124C1.71569 1.74299 1.40973 2.04895 1.21799 2.42527C1 2.85309 1 3.41315 1 4.53325V12.3333C1 13.4378 1.89543 14.3333 3 14.3333M13 14.3333H9M9 14.3333C9 15.9901 7.65685 17.3333 6 17.3333C4.34315 17.3333 3 15.9901 3 14.3333M9 14.3333C9 12.6764 7.65685 11.3333 6 11.3333C4.34315 11.3333 3 12.6764 3 14.3333M19.5 14.8333C19.5 16.214 18.3807 17.3333 17 17.3333C15.6193 17.3333 14.5 16.214 14.5 14.8333C14.5 13.4525 15.6193 12.3333 17 12.3333C18.3807 12.3333 19.5 13.4525 19.5 14.8333Z" stroke="#667085" stroke-width="2" stroke-linecap="round" stroke-linejoin="round"/>
</svg>
