<svg width="22" height="22" viewBox="0 0 22 22" fill="none" xmlns="http://www.w3.org/2000/svg">
<path d="M7.37658 14.9497L1.71973 20.6065M10.6943 5.97519L9.13338 7.53608C9.00606 7.6634 8.9424 7.72706 8.86986 7.77765C8.80548 7.82255 8.73604 7.85971 8.66297 7.88837C8.58065 7.92066 8.49236 7.93832 8.3158 7.97363L4.65133 8.70653C3.69903 8.89699 3.22288 8.99222 3.00012 9.24327C2.80605 9.46198 2.71743 9.75467 2.75758 10.0443C2.80367 10.3768 3.14703 10.7201 3.83375 11.4068L10.9195 18.4926C11.6062 19.1793 11.9496 19.5226 12.282 19.5687C12.5716 19.6089 12.8643 19.5203 13.083 19.3262C13.3341 19.1034 13.4293 18.6273 13.6198 17.675L14.3527 14.0105C14.388 13.8339 14.4056 13.7457 14.4379 13.6633C14.4666 13.5903 14.5038 13.5208 14.5487 13.4564C14.5992 13.3839 14.6629 13.3203 14.7902 13.1929L16.3511 11.632C16.4325 11.5506 16.4732 11.5099 16.518 11.4744C16.5577 11.4428 16.5998 11.4143 16.6439 11.3891C16.6935 11.3608 16.7464 11.3381 16.8522 11.2928L19.3466 10.2238C20.0743 9.9119 20.4381 9.75596 20.6034 9.50398C20.7479 9.28362 20.7996 9.01512 20.7473 8.75685C20.6874 8.46151 20.4075 8.18159 19.8477 7.62177L14.7045 2.47863C14.1447 1.91881 13.8648 1.63889 13.5695 1.57902C13.3112 1.52666 13.0427 1.57837 12.8223 1.7229C12.5703 1.88818 12.4144 2.25203 12.1025 2.97973L11.0335 5.47409C10.9882 5.57991 10.9655 5.63281 10.9372 5.68243C10.912 5.7265 10.8835 5.76859 10.8519 5.80834C10.8164 5.85308 10.7757 5.89378 10.6943 5.97519Z" stroke="#667085" stroke-width="2" stroke-linecap="round" stroke-linejoin="round"/>
</svg>
